<?xml version="1.0" encoding="utf-8" ?>
<svg xmlns="http://www.w3.org/2000/svg" xmlns:xlink="http://www.w3.org/1999/xlink" width="1024" height="1024">
	<path fill="#FAF9F6" d="M246.13 113.172C254.539 112.355 263.588 112.904 272.064 112.913L321.407 112.985L470.805 112.885L676.028 112.95L741.257 112.9C752.828 112.885 764.586 112.44 776.138 112.989C781.865 113.262 787.156 114.64 792.089 117.604C799.758 122.318 805.223 129.904 807.265 138.671C808.788 145.335 807.996 153.407 807.985 160.221L807.949 193.369L808.014 333.74L807.615 696.837L807.484 808.49C807.488 829.081 808.162 849.94 807.29 870.503C806.974 877.952 805.727 884.043 801.738 890.431C795.725 900.06 787.025 906 776.009 908.464C769.262 909.578 761.758 909.019 754.912 909.023L719.008 909.025L589.205 909.057L360.819 909.072L286.256 909.093C272.825 909.094 259.199 909.587 245.795 908.926C239.742 908.628 234.062 907.109 229.038 903.634C222.693 899.162 218.451 892.291 217.295 884.615C215.815 875.075 216.702 864.427 216.727 854.75L216.754 803.179L216.921 608.104L216.889 290.229L217.103 194.871C217.111 178.111 216.281 160.967 217.185 144.256C217.566 137.23 219.318 131.262 223.625 125.621C229.184 118.34 237.162 114.346 246.13 113.172Z"/>
	<path d="M511.85 256.843C512.596 257.594 520.218 278.03 521.742 281.187C530.291 298.766 540.423 315.53 552.011 331.272C566.907 352.179 583.393 371.906 601.321 390.278C615.722 405.088 630.557 419.488 645.221 434.038C676.06 464.639 707.88 497.293 715.397 542.112C719.47 566.4 715.481 591.825 700.992 612.101C684.963 634.531 660.487 647.145 633.608 651.435C596.466 657.362 560.848 648.279 530.553 626.239C530.379 642.651 532.608 659 537.17 674.767C547.126 708.707 573.327 744.765 604.675 761.861L512.125 761.64L450.399 761.453C441.339 761.455 425.907 762.53 417.559 760.729C429.859 755.376 440.004 747.92 449.61 738.614C472.015 716.907 486.605 686.188 491.197 655.402C492.604 645.967 492.841 636.526 492.994 627.006C487.077 630.782 481.594 634.847 475.313 638.068C443.484 654.664 406.365 657.93 372.126 647.148C347.818 639.267 327.864 622.8 316.314 599.939C308.31 584.098 305.453 567.909 307.055 550.262C311.873 497.207 354.209 459.283 389.623 424.111C405.858 407.822 421.758 391.202 437.312 374.262C466.295 342.191 498.191 298.256 511.85 256.843Z"/>
	<path fill="#FAF9F6" d="M512.073 285.794C515.229 290.558 517.41 296.496 520.166 301.581C525.737 311.796 531.917 321.668 538.672 331.142C556.612 356.56 576.645 380.434 598.561 402.515C612.847 417.053 627.949 430.779 641.992 445.577C648.279 452.202 654.258 459.176 660.294 466.03C686.419 495.698 705.728 524.676 704.423 565.908C703.788 585.97 693.727 605.598 679.085 619.1C666.698 630.523 649.258 637.95 632.292 637.292C642.666 634.797 652.525 632.087 661.893 626.806C678.884 617.228 693.085 600.463 698.202 581.488C704.858 556.803 697.911 529.018 685.767 507.148C668.959 476.878 639.226 448.418 614.71 424.08C599.216 408.962 584.17 393.391 569.593 377.386C548.316 353.67 530.534 327.2 514.569 299.721L511.76 295.07C494.364 327.835 471.835 358.388 446.984 385.893C434.192 400.05 420.677 413.847 407.162 427.316C380.861 453.525 353.381 478.895 335.425 511.904C332.146 517.933 328.933 524.07 326.731 530.586C319.769 551.19 319.853 572.713 329.669 592.359C342.633 618.306 358.29 627.805 385.003 636.708C375.895 636.458 367.515 633.788 359.557 629.346C341.755 619.409 327.177 600.486 321.626 580.9C303.577 517.212 365.402 464.045 405.218 424.038C423.402 405.75 440.963 386.852 457.87 367.378C472.478 350.438 486.177 331.402 497.583 312.168C502.695 303.547 507.188 294.546 512.073 285.794Z"/>
	<path fill="#FAF9F6" d="M503.067 655.219L504.809 655.438C505.632 656.1 505.836 656.227 505.925 657.358C506.137 660.069 504.138 668.107 503.494 671.033C497.157 699.811 485.211 722.04 467.021 745.013C480.978 745.827 495.251 745.173 509.248 745.144C526.288 745.108 543.353 745.543 560.386 745.263C545.479 728.502 535.149 710.66 528.294 689.347C526.747 684.538 524.886 679.589 524.834 674.488L525.8 673.613C528.912 675.606 530.08 683.2 530.951 686.696C538.157 710.433 550.7 731.465 568.749 748.506C555.394 749.56 541.648 748.873 528.245 748.89C504.463 748.994 480.681 748.976 456.899 748.836C478.604 727.719 492.53 701.467 499.621 672.124C500.569 668.2 501.024 658.043 503.067 655.219Z"/>
	<path fill="#FAF9F6" d="M550.007 524.188C553.633 523.869 557.747 523.857 561.242 524.946C563.768 525.733 566.184 527.25 567.393 529.679C568.725 532.353 568.466 535.492 567.541 538.25C565.764 543.541 561.443 548.018 556.396 550.314C549.642 553.386 540.07 553.238 533.212 550.43C528.8 548.624 526.145 545.793 524.301 541.469C524.434 540.251 524.775 539.146 525.269 538.028C528.232 531.327 535.686 527.929 542.136 525.527C541.141 528.904 540.146 532.417 539.886 535.941C539.596 539.868 540.096 544.597 542.928 547.603C543.93 548.667 545.413 549.528 546.928 549.348C548.258 549.189 549.347 548.236 550.078 547.174C554.845 540.247 551.482 531.459 550.007 524.188Z"/>
	<path fill="#FAF9F6" d="M467.805 524.152C470.172 524.027 472.543 524.193 474.908 524.298C472.884 528.754 471.744 533.671 471.996 538.583C472.153 541.651 473.005 545.123 475.448 547.196C476.68 548.24 478.208 548.789 479.835 548.528C481.647 548.237 483.031 546.998 483.887 545.432C486.841 540.025 484.276 531.133 482.461 525.652C489.653 527.755 494.669 529.918 498.908 536.38C499.052 536.792 499.189 537.207 499.32 537.624C500.053 539.994 500.117 542.109 498.876 544.328C496.735 548.157 492.299 550.145 488.248 551.267C480.96 553.285 472.473 553.521 465.811 549.506C461.665 547.007 458.633 543.193 457.532 538.444C456.798 535.277 456.79 531.135 458.709 528.36C460.819 525.309 464.377 524.643 467.805 524.152Z"/>
	<path fill="#FAF9F6" d="M511.189 666.89C511.814 667.917 511.875 668.052 511.827 669.268C511.316 682.066 493.214 726.26 483.41 735.321C483.23 734.963 482.899 734.646 482.871 734.246C482.743 732.457 487.225 726.525 488.199 724.701C491.281 718.93 494.635 713.27 497.44 707.357C503.496 694.593 507.775 680.562 511.189 666.89Z"/>
	<path fill="#FAF9F6" d="M512.016 567.312C514.319 569.781 514.279 574.027 517.124 576.464C519.277 578.308 521.929 578.38 524.629 578.152C528.489 577.825 530.761 577.002 533.231 573.989C533.355 573.838 533.476 573.684 533.598 573.531C533.903 574.405 533.867 573.948 533.523 575.09C533.014 576.778 531.998 578.037 530.394 578.805C526.703 580.572 521.663 580.095 517.993 578.538C514.739 577.156 513 575.14 511.643 571.937C510.946 572.699 510.481 574.063 509.92 574.967C508.579 577.126 507.155 578.767 504.595 579.311C500.592 580.161 494.213 579.892 490.848 577.26C489.791 576.433 489.694 575.838 489.565 574.563L489.998 574.115C490.698 574.714 491.412 575.293 492.123 575.879C494.289 577.667 497.095 578.252 499.867 578.382C508.56 578.789 507.655 571.168 512.016 567.312Z"/>
	<path fill="#CDCDD1" d="M443.872 559.247C454.995 559.083 480.5 559.661 489.4 565.069L489.204 565.421C483.939 563.83 478.541 563.059 473.119 562.231C464.037 559.917 449.885 559.927 440.399 560.41C435.811 560.644 431.255 561.28 426.657 561.322C431.955 559.58 438.314 559.566 443.872 559.247Z"/>
	<path fill="#CDCDD1" d="M575.117 558.784C582.178 558.345 589.345 558.154 596.4 558.738C581.419 560.178 566.584 560.011 551.625 562.3C545.288 563.559 538.941 564.506 532.625 565.927C543.735 560.04 562.591 559.665 575.117 558.784Z"/>
	<path fill="#CDCDD1" d="M543.372 566.215C553.138 565.758 583.517 565.479 590.965 569.289C589.193 569.833 586.34 568.963 584.5 568.659C575.793 567.599 566.99 567.734 558.238 567.539C555.009 567.467 551.716 567.047 548.502 567.093C544.601 567.149 539.719 568.369 535.955 567.589C538.309 566.53 540.832 566.458 543.372 566.215Z"/>
	<path fill="#CDCDD1" d="M460.77 566.223C469.188 565.957 478.852 565.172 487.084 566.988C488.146 567.222 489.295 567.328 489.898 568.282L489.039 568.651C482.818 565.746 471.472 566.95 464.477 567.283C459.552 567.536 454.635 567.608 449.714 567.977C444.939 568.335 439.998 569.052 435.215 568.884C439.227 565.996 455.207 566.413 460.77 566.223Z"/>
	<path fill="#CDCDD1" d="M485.8 569.228C486.412 569.125 487.056 569.214 487.675 569.243C486.77 570.135 465.742 573.723 462.362 574.534C453.937 576.554 445.793 579.297 437.596 582.079C437.125 582.232 436.257 582.293 435.757 582.366C436.794 581.099 440.078 580.11 441.642 579.501C455.908 573.95 470.735 571.456 485.8 569.228Z"/>
	<path fill="#CDCDD1" d="M535.183 569.335C553.53 570.842 571.78 575.08 588.21 583.507C583.414 583.073 571.744 577.658 566.013 576.048C561.533 574.789 536.19 569.985 535.183 569.335Z"/>
	<path fill="#CDCDD1" d="M327.446 538.3C327.615 538.292 327.784 538.28 327.953 538.277C329.139 538.261 329.915 538.236 330.766 539.087C330.637 539.743 330.502 540.38 330.315 541.024C330.265 541.196 330.211 541.366 330.159 541.538C331.872 542.443 333.286 543.46 334.775 544.696L334.699 545.84C334.215 546.255 333.691 546.631 333.184 547.018C330.359 545.934 330.04 544.075 328.626 541.698C327.893 540.465 327.612 539.733 327.446 538.3Z"/>
	<path fill="#FAF9F6" d="M513.329 707.43C513.761 707.898 513.531 707.565 513.735 708.573C512.216 712.927 509.346 716.913 506.758 720.693C506.494 720.445 506.364 720.084 506.186 719.769C507.918 715.427 510.773 711.334 513.329 707.43Z"/>
	<path fill="#FAF9F6" d="M363.499 594.278C364.193 593.862 365.058 593.852 365.761 594.254C366.463 594.656 366.895 595.405 366.889 596.215C366.883 597.024 366.44 597.767 365.732 598.159C364.663 598.749 363.318 598.373 362.709 597.315C362.1 596.257 362.451 594.906 363.499 594.278Z"/>
	<path d="M275.329 213.772C279.846 216.565 284.182 221.971 288.188 225.6C293.044 229.997 298.947 233.813 303.05 238.939C306.776 243.594 308.753 250.195 307.834 256.12C307.122 260.842 304.483 265.056 300.546 267.757C297.12 270.157 292.678 271.575 288.502 270.697C283.537 269.653 280.959 266.052 278.368 262.079C278.68 264.418 278.974 266.771 279.392 269.093C280.74 276.57 286.378 280.325 292.171 284.36C286.725 285.007 281.226 284.923 275.75 284.972C270.816 285.017 265.913 285.103 260.992 284.654C263.18 283.245 265.418 281.846 267.386 280.136C273.442 274.876 274.792 268.125 275.454 260.571C274.847 261.725 274.195 262.821 273.449 263.893C270.924 267.521 267.171 270.172 262.738 270.816C258.75 271.396 254.745 270.226 251.539 267.825C247.669 264.897 245.176 260.502 244.65 255.677C243.256 242.318 255.882 233.76 264.39 225.69C268.325 221.958 271.884 217.952 275.329 213.772Z"/>
	<path d="M732.17 739.534C735.829 739.455 756.475 738.849 758.261 740.423C753.825 746.37 749.091 752.619 747.799 760.147C747.549 761.604 747.704 762.465 748.53 763.669C750.698 762.313 751.553 759.328 753.219 757.413C755.345 754.969 759.005 753.566 762.194 753.612C765.775 753.664 769.2 755.295 771.657 757.872C774.896 761.269 776.48 766.049 776.195 770.705C775.385 783.943 762.682 795.475 753.332 803.526C751.012 805.613 748.444 807.502 746.003 809.451C740.418 804.844 734.725 800.208 729.647 795.04C723.398 788.68 716.455 780.24 716.754 770.797C716.914 765.719 719.347 760.589 723.222 757.284C725.622 755.238 729.327 753.628 732.534 753.94C738.012 754.475 741.799 760.921 744.938 764.857C743.743 756.94 741.232 749.547 735.35 743.877C733.756 742.34 732.704 741.712 732.17 739.534Z"/>
	<path d="M275.23 138.44C276.173 138.426 277.326 138.357 278.242 138.566C279.462 138.843 280.199 139.583 280.814 140.639C283.059 144.497 284.06 149.389 285.227 153.679C288.21 164.649 292.826 187.498 297.696 196.339C299.963 197.316 302.336 197.97 303.502 200.294C303.575 201.541 303.452 201.999 302.788 203.056C299.593 205 296.131 202.182 292.808 202.211C289.862 202.236 286.86 203.665 283.943 203.553C283.393 203.532 282.857 203.548 282.51 203.067C281.883 202.196 281.543 200.538 281.812 199.499C281.989 198.814 283.227 198.254 283.847 197.881C284.389 197.554 284.957 197.272 285.472 196.9C286.536 196.131 287.105 194.859 287.295 193.584C287.646 191.233 286.531 188.996 285.137 187.178C283.29 184.769 281.814 184.377 278.908 183.956L278.062 183.95C274.423 183.957 271.307 184.354 268.707 187.182C267.485 188.513 266.829 190.204 266.998 192.029C267.368 196.004 269.191 196.568 271.89 198.833C272.827 199.618 273.187 200.179 273.086 201.501C273.027 202.278 272.726 203.093 272.035 203.472C270.006 204.587 266.829 203.293 264.719 202.749C260.843 201.75 257.23 203.79 253.315 203.388C252.018 203.255 251.397 203.08 250.573 202.08C250.592 201.902 250.592 201.72 250.632 201.546C251.3 198.672 255.189 197.06 257.454 195.656C264.686 180.806 266.899 150.483 275.23 138.44Z"/>
	<path fill="#FAF9F6" d="M276.831 157.712C279.08 158.908 280.527 163.155 281.264 165.599C282.002 168.045 282.767 172.3 281.172 174.573C280.312 175.798 278.873 176.017 277.515 176.311C276.217 176.21 274.328 176.287 273.279 175.428C272.084 174.449 271.693 172.82 271.626 171.343C271.437 167.238 273.981 160.709 276.831 157.712Z"/>
	<path d="M753.9 838.21C754.81 834.75 755.98 831.17 756.542 827.643C756.735 826.435 756.918 826.203 756.19 825.162L753.374 824.777C752.363 824.01 752.017 823.423 751.485 822.279C751.634 821.66 751.598 821.259 752.118 820.822C755.566 817.923 766.965 819.36 771.387 819.463L769.588 825.849L763.832 825.94C762.397 830.757 761.421 835.772 760.278 840.669C757.373 855.515 753.174 870.145 750.208 885.006L742.718 885.022C741.933 877.982 739.672 870.604 737.927 863.739C734.684 850.982 731.687 837.362 726.264 825.331C724.781 825.179 723.486 825.023 722.07 824.507C721.136 822.916 721.408 821.291 721.393 819.476L741.345 819.441C741.273 821.128 741.344 822.764 740.596 824.317C739.159 825.424 736.824 825.09 735.077 825.096C735.605 830.088 737.03 834.846 738.474 839.635C740.285 837.973 742.219 836.221 744.67 835.603C748.214 834.708 751.021 836.387 753.9 838.21Z"/>
	<path fill="#FAF9F6" d="M746.262 842.368C746.474 842.368 746.686 842.356 746.898 842.367C748.399 842.44 749.889 842.921 750.772 844.219C753.549 848.306 748.156 860.922 746.791 865.726L746.21 865.818C744.251 859.456 742.955 852.759 741.419 846.275C742.9 844.821 744.61 843.62 746.262 842.368Z"/>
</svg>
