<?xml version="1.0" standalone="no"?>
<!DOCTYPE svg PUBLIC "-//W3C//DTD SVG 20010904//EN"
 "http://www.w3.org/TR/2001/REC-SVG-20010904/DTD/svg10.dtd">
<svg version="1.0" xmlns="http://www.w3.org/2000/svg"
 width="512.000000pt" height="512.000000pt" viewBox="0 0 512.000000 512.000000"
 preserveAspectRatio="xMidYMid meet">
<metadata>
Created by potrace 1.16, written by Peter Selinger 2001-2019
</metadata>
<g transform="translate(0.000000,512.000000) scale(0.100000,-0.100000)"
fill="#000000" stroke="none">
<path d="M1077 4758 c-51 -14 -129 -91 -145 -144 -9 -31 -12 -303 -12 -1128
l0 -1087 35 -52 35 -52 0 1120 c0 740 4 1133 10 1157 6 21 22 51 37 68 53 63
34 61 600 60 497 -1 516 -1 541 -20 20 -16 40 -20 107 -20 95 0 203 19 183 31
-7 5 -62 9 -121 9 l-108 0 -20 35 -21 35 -541 -1 c-329 -1 -557 -5 -580 -11z"/>
<path d="M2740 4761 c-71 -6 -68 -6 64 -13 77 -5 177 -8 224 -8 67 0 90 -4
105 -17 17 -16 52 -18 356 -21 330 -4 337 -3 355 17 50 55 221 1 277 -87 26
-41 29 -55 29 -128 0 -74 2 -84 22 -98 12 -9 25 -16 28 -16 3 0 3 51 0 112 -4
77 -11 123 -22 144 -24 45 -91 101 -135 113 -40 11 -1159 13 -1303 2z"/>
<path d="M2122 4533 c-39 -15 -62 -144 -62 -344 0 -153 -9 -180 -74 -234 -28
-24 -42 -43 -37 -49 5 -6 -1 -31 -13 -57 l-22 -46 -59 23 c-90 35 -100 28 -15
-9 60 -27 74 -37 72 -52 -2 -11 -4 -34 -5 -51 l-2 -31 -71 -6 c-39 -4 -82 -11
-95 -17 l-24 -10 25 4 c14 3 58 8 98 12 69 6 72 6 72 -14 0 -17 -10 -24 -42
-32 -69 -18 -132 -39 -148 -51 -12 -9 -11 -9 5 -3 41 15 151 43 173 43 20 1
25 -9 21 -36 -1 -5 -25 -17 -54 -28 -29 -11 -63 -28 -76 -38 l-24 -19 25 15
c36 20 142 59 147 53 3 -2 -19 -16 -49 -30 -29 -14 -69 -39 -88 -56 l-35 -31
35 25 c19 13 57 34 85 46 47 20 50 20 62 4 7 -10 13 -22 13 -27 0 -25 -46
-159 -73 -212 -26 -52 -67 -158 -67 -173 0 -3 9 3 20 13 20 18 20 18 6 -16
-54 -130 -60 -369 -13 -514 34 -102 36 -233 6 -437 -25 -171 -106 -557 -121
-575 -6 -8 -33 -13 -68 -13 -47 0 -62 -4 -84 -25 -69 -64 -58 -163 24 -205 32
-16 59 -20 145 -20 104 0 105 0 105 -24 0 -35 36 -74 81 -86 36 -10 39 -13 32
-38 -14 -49 -9 -110 12 -138 32 -42 110 -78 182 -82 49 -3 64 -8 68 -23 7 -22
120 -97 194 -128 112 -48 333 -36 567 30 401 112 700 400 785 755 27 114 29
320 4 438 -32 154 -105 326 -207 491 -28 44 -59 109 -70 145 -48 158 -161 321
-304 437 -39 32 -92 75 -118 96 -81 66 -125 190 -92 256 9 17 22 31 29 31 15
0 92 -47 152 -93 l40 -30 -35 36 c-19 20 -61 52 -93 71 -32 19 -54 36 -50 39
11 6 180 -67 218 -95 l30 -21 -20 22 c-11 13 -61 43 -112 68 -83 40 -92 47
-83 64 6 10 19 19 29 19 22 0 136 -37 174 -56 15 -8 27 -12 27 -9 0 9 -118 61
-168 74 -38 11 -42 15 -36 34 3 12 8 24 11 26 3 5 127 -12 183 -24 14 -3 7 2
-15 10 -22 9 -66 18 -97 22 -50 5 -58 9 -59 27 -1 62 -11 121 -36 209 l-27 98
32 97 c65 202 71 398 12 417 -29 9 -61 -10 -157 -92 -50 -43 -115 -92 -143
-107 -52 -29 -54 -29 -134 -17 -45 7 -115 13 -157 15 -94 3 -108 13 -199 134
-80 105 -128 141 -168 125z m79 -213 c23 -41 55 -95 72 -120 16 -25 23 -39 14
-31 -10 7 -33 40 -53 72 -19 33 -37 59 -40 59 -6 0 21 -53 54 -105 l25 -40
-28 25 -28 25 19 -34 c10 -18 30 -37 44 -43 32 -12 90 -68 90 -86 0 -12 -3
-12 -17 -1 -14 12 -16 12 -11 -1 4 -12 -4 -15 -41 -15 -25 0 -56 -7 -68 -16
-22 -15 -21 -15 11 -16 18 -1 47 -8 65 -17 36 -19 123 -132 119 -154 -5 -27
-23 -22 -39 11 -23 48 -71 69 -146 65 -34 -2 -65 -7 -69 -10 -12 -13 18 -78
49 -104 29 -25 36 -26 100 -21 l68 6 6 -30 c9 -47 21 -43 38 13 20 67 19 81
-6 131 -21 40 -21 43 -5 127 9 47 16 101 17 120 0 19 5 44 10 55 6 13 8 -24 6
-109 -3 -91 -1 -123 6 -110 6 10 12 55 14 99 4 79 20 155 33 155 4 0 12 -19
17 -42 l10 -43 8 33 c10 44 22 48 51 21 28 -26 31 -62 9 -133 -8 -27 -15 -65
-15 -85 1 -30 6 -20 31 54 23 70 29 102 25 145 -2 35 -1 48 4 35 14 -32 11
-115 -5 -175 -8 -30 -15 -73 -15 -96 0 -27 -8 -51 -25 -74 -22 -29 -25 -44
-25 -111 l0 -77 -76 5 -76 6 33 -47 c38 -53 35 -67 -21 -98 -39 -20 -110 -24
-143 -7 -32 17 -59 48 -52 59 3 6 1 10 -4 10 -6 0 -11 7 -11 16 0 13 8 15 43
10 l42 -5 -45 13 c-25 8 -37 14 -27 15 9 1 17 5 17 10 0 11 -13 15 -93 31 -79
16 -82 7 -5 -19 39 -13 50 -19 28 -16 -19 3 -74 8 -122 12 -49 3 -88 8 -88 11
0 3 10 16 22 29 18 20 19 23 5 23 -18 0 -23 20 -8 36 15 14 91 134 86 134 -12
0 -74 -63 -69 -71 3 -5 0 -9 -5 -9 -6 0 -11 2 -11 5 0 13 40 83 54 94 9 8 16
23 16 35 0 12 14 38 31 59 l30 37 -10 94 c-12 108 -14 203 -4 260 l6 39 18
-24 c10 -13 37 -58 60 -99z m856 84 c-3 -3 -12 -4 -19 -1 -8 3 -5 6 6 6 11 1
17 -2 13 -5z m-47 -8 c0 -2 -8 -10 -17 -17 -16 -13 -17 -12 -4 4 13 16 21 21
21 13z m-40 -29 c0 -2 -48 -48 -107 -103 -59 -54 -101 -90 -93 -78 13 17 190
182 198 184 1 0 2 -1 2 -3z m101 -112 c-7 -46 -23 -120 -36 -166 -14 -45 -25
-90 -25 -98 0 -9 -4 -22 -9 -30 -7 -11 -19 -7 -60 23 -54 40 -62 60 -33 83 15
13 14 14 -15 10 -44 -5 -41 5 10 31 23 12 31 19 18 16 -17 -5 -21 -3 -16 7 6
9 2 11 -13 7 -32 -9 -27 -3 22 26 60 35 69 52 11 20 -25 -14 -45 -24 -45 -22
0 3 32 26 70 52 75 51 102 82 115 131 14 53 18 0 6 -90z m-667 -200 l7 -30
-21 32 c-12 18 -18 38 -14 44 8 14 18 -2 28 -46z m321 -45 c-10 -11 -15 -20
-11 -20 4 0 4 -5 1 -10 -4 -6 -11 -8 -16 -5 -11 7 19 55 34 55 5 0 2 -9 -8
-20z m123 -17 c45 -21 97 -73 121 -121 22 -43 83 -224 77 -229 -2 -2 -24 50
-50 116 -26 65 -60 137 -75 159 -38 51 -109 87 -159 78 -26 -4 -32 -2 -22 4
23 15 68 12 108 -7z m-618 -141 c0 -16 8 -36 18 -45 16 -15 17 -13 14 29 -3
35 -1 44 12 44 12 0 16 -10 16 -45 0 -25 4 -45 8 -45 12 0 37 31 46 55 l7 20
15 -20 c14 -18 13 -22 -11 -42 -51 -44 -126 -23 -149 40 -7 20 0 37 15 37 5 0
9 -13 9 -28z m453 -2 c-18 -10 -40 -31 -49 -45 -12 -19 -19 -23 -25 -13 -4 7
-2 19 4 27 17 20 69 51 87 51 8 0 1 -9 -17 -20z m40 -100 c-6 -7 -56 23 -60
36 -2 6 9 24 24 40 l28 29 6 -50 c3 -27 4 -52 2 -55z m70 88 c23 -18 12 -51
-25 -72 -30 -18 -30 -18 -19 2 6 11 11 34 11 51 0 34 7 38 33 19z m88 -65 c17
-21 45 -57 61 -82 32 -52 27 -61 -41 -61 -43 0 -43 1 -39 30 4 25 1 31 -16 35
-129 29 -147 29 -101 -1 35 -23 60 -71 46 -88 -6 -7 -8 -16 -4 -19 3 -4 1 -7
-6 -7 -7 0 -9 -4 -6 -10 4 -6 -20 -8 -62 -5 -73 5 -68 0 12 -10 44 -6 48 -8
31 -20 -13 -10 -25 -11 -46 -3 -16 5 -41 8 -57 5 -25 -4 -24 -4 7 -6 39 -1 68
-16 57 -27 -4 -4 -31 -9 -60 -12 -61 -5 -107 13 -133 53 -16 24 -15 27 11 65
15 22 33 40 39 40 6 0 23 21 39 46 25 42 30 45 55 38 61 -17 132 10 147 56 9
30 29 24 66 -17z m-858 -130 c-13 -2 -33 -2 -45 0 -13 2 -3 4 22 4 25 0 35 -2
23 -4z m172 -11 c32 -11 27 -31 -9 -38 -19 -3 -39 -3 -44 0 -5 3 -44 -2 -86
-10 -43 -9 -80 -14 -83 -10 -12 12 28 55 54 59 44 6 146 6 168 -1z m819 -37
c-4 -9 -14 -13 -28 -10 -11 3 -39 9 -61 14 -38 9 -36 9 27 10 56 1 66 -2 62
-14z m-66 -22 c31 -5 32 -7 18 -21 -14 -15 -20 -15 -63 1 -27 9 -56 17 -65 17
-9 0 -20 5 -24 11 -7 12 42 9 134 -8z m-719 3 c-7 -7 -250 -48 -255 -43 -6 6
72 27 137 37 62 9 124 12 118 6z m666 -37 c37 -11 65 -22 63 -24 -4 -4 -149
33 -156 40 -11 11 29 4 93 -16z m-650 3 c-6 -5 -30 -14 -55 -21 -25 -7 -79
-30 -119 -52 -41 -21 -76 -37 -78 -35 -2 2 6 15 17 29 24 30 88 79 75 56 -7
-11 -6 -12 6 -2 29 23 180 48 154 25z m322 -71 c12 -6 32 -11 44 -11 19 0 20
-2 8 -17 -42 -50 -143 -57 -212 -13 -54 34 -58 47 -19 55 15 4 45 14 67 25 40
18 40 18 65 -5 14 -12 35 -28 47 -34z m297 44 c71 -22 104 -55 52 -51 -13 0
-22 4 -20 7 4 7 -90 39 -115 39 -14 0 -14 2 -1 10 20 13 26 12 84 -5z m-559
-32 c30 -51 101 -114 139 -124 56 -15 131 -3 191 31 55 31 153 55 184 45 28
-9 71 -62 71 -88 0 -19 -4 -17 -38 16 -42 41 -58 48 -42 18 14 -27 13 -75 -4
-114 -21 -52 -93 -107 -234 -181 -72 -37 -148 -83 -170 -102 -57 -48 -92 -123
-92 -195 0 -32 4 -60 9 -63 5 -3 28 11 52 32 24 20 53 44 63 52 18 14 19 14 8
-7 -19 -34 -15 -75 6 -72 9 1 26 1 37 0 17 -2 16 -4 -8 -17 -33 -18 -47 -50
-47 -108 0 -77 -19 -148 -65 -240 l-45 -91 0 100 c0 113 18 213 50 275 31 61
17 60 -24 -2 -50 -76 -66 -148 -66 -301 0 -109 -3 -136 -22 -179 -21 -49 -22
-49 -34 -27 -12 23 -12 22 -19 -16 -16 -102 -17 -103 -59 -20 -30 60 -42 113
-62 260 -8 60 -23 144 -33 185 l-19 75 0 -115 c-1 -63 3 -135 7 -159 l9 -45
-19 25 c-38 51 -74 128 -110 239 -37 114 -38 114 -39 65 -1 -43 -3 -46 -11
-26 -33 82 -30 259 7 405 18 69 81 199 119 244 42 50 20 38 -48 -25 l-61 -58
43 79 c65 123 141 198 238 237 55 22 122 18 138 -8z m515 -4 c52 -23 80 -46
80 -66 0 -10 -6 -8 -21 6 -12 11 -38 28 -58 37 -20 9 -45 23 -56 30 -30 21 2
17 55 -7z m-44 -14 c17 -13 13 -14 -51 -14 -67 1 -69 1 -40 14 39 18 67 18 91
0z m39 -282 c-30 -47 -58 -74 -99 -95 -37 -19 -33 -14 35 53 40 41 76 73 78
72 2 -1 -4 -15 -14 -30z m72 -25 c-3 -8 -6 -5 -6 6 -1 11 2 17 5 13 3 -3 4
-12 1 -19z m-18 -81 c-7 -18 -29 -57 -49 -87 -55 -82 -75 -162 -61 -238 l9
-43 -23 21 c-33 31 -73 127 -81 192 l-7 56 58 18 c65 21 141 82 152 122 6 21
8 23 11 9 2 -10 -2 -33 -9 -50z m-85 12 c-44 -46 -84 -67 -170 -89 -44 -11
-88 -23 -99 -25 -45 -12 76 46 147 70 42 15 92 37 110 50 45 32 47 30 12 -6z
m209 -227 c31 -44 78 -73 158 -96 149 -42 239 -184 195 -308 l-17 -48 70 -97
c85 -118 142 -231 172 -338 18 -64 23 -106 22 -210 0 -146 -16 -215 -92 -395
-22 -52 -38 -96 -36 -98 16 -17 113 131 148 227 38 103 67 255 68 363 l1 93 9
-60 c18 -115 -26 -327 -98 -474 -38 -77 -156 -215 -258 -301 -137 -116 -312
-190 -498 -211 -126 -14 -215 -3 -312 37 -99 42 -122 46 -161 34 -24 -8 -40
-22 -51 -45 -13 -28 -19 -32 -34 -25 -25 14 -33 63 -15 98 32 62 124 71 283
26 86 -25 115 -28 238 -29 161 0 223 13 350 75 250 121 403 362 422 665 10
163 -27 302 -121 456 -87 143 -164 199 -210 153 -23 -23 -20 -96 6 -151 13
-29 69 -95 141 -170 117 -121 147 -167 162 -243 6 -32 4 -30 -18 16 -22 44
-67 94 -86 94 -4 0 -7 -42 -6 -92 0 -78 -4 -100 -22 -135 -22 -41 -69 -83
-107 -97 -16 -5 -12 -10 24 -29 59 -30 85 -67 85 -124 0 -54 -28 -83 -82 -83
-20 0 -48 -9 -65 -22 -17 -12 -29 -17 -26 -12 36 76 38 85 28 124 -11 40 -61
99 -102 121 -23 12 -23 11 1 -15 28 -30 20 -34 -17 -8 -63 44 -187 56 -275 26
-56 -19 -135 -86 -153 -131 -54 -128 54 -257 151 -181 26 20 27 25 21 80 l-6
59 32 -3 c70 -7 100 -125 49 -197 -26 -36 -90 -70 -131 -71 -123 -1 -220 110
-220 252 0 101 32 188 92 252 l49 51 -24 -45 c-14 -25 -28 -58 -32 -75 -5 -25
-1 -22 32 25 69 99 196 150 295 121 22 -7 42 -10 45 -7 8 8 -43 37 -89 51
l-43 13 57 16 c73 22 120 14 154 -27 19 -23 24 -36 19 -56 -13 -46 -11 -55 15
-68 29 -15 83 -9 118 13 60 39 79 131 43 209 -23 52 -89 111 -140 126 l-40 12
32 21 c26 18 33 29 35 63 3 34 -2 47 -28 76 -17 20 -47 41 -67 48 -36 11 -132
8 -168 -6 -13 -5 -4 8 22 36 75 79 101 179 73 280 -22 80 -86 143 -143 141
l-34 -1 33 34 c39 41 49 89 34 164 -5 29 -10 79 -9 110 l0 56 13 -47 c7 -26
25 -65 39 -86z m-103 -202 c-8 -5 -26 -9 -40 -9 -23 1 -23 2 5 9 43 11 52 11
35 0z m-82 -101 c29 -88 37 -159 26 -235 l-8 -59 -6 95 c-5 69 -14 113 -34
162 -25 61 -28 108 -8 108 4 0 17 -32 30 -71z m-292 -107 c-14 -28 -96 -102
-96 -87 0 4 16 25 35 48 19 22 43 57 53 78 15 33 17 34 20 13 2 -12 -4 -36
-12 -52z m417 -2 c3 -25 2 -63 -3 -85 -7 -37 -8 -35 -9 26 0 37 -4 82 -7 100
-4 23 -2 29 4 19 5 -8 12 -35 15 -60z m44 -79 c-5 -59 -31 -130 -61 -166 -13
-15 -12 -10 3 21 20 41 34 93 46 167 9 58 18 43 12 -22z m-349 -28 c63 -46 95
-167 70 -266 -14 -53 -14 -55 4 -46 10 5 35 26 55 46 l37 37 -29 -53 c-16 -29
-44 -66 -62 -82 -40 -34 -130 -82 -142 -75 -5 3 -8 -29 -7 -72 1 -77 0 -78
-56 -177 -106 -185 -150 -313 -164 -468 -7 -77 -7 -78 -43 -95 -31 -15 -69
-57 -85 -95 -11 -27 -37 27 -34 71 3 36 1 40 -9 25 -7 -9 -13 -38 -13 -65 0
-37 -4 -48 -16 -48 -48 0 -81 61 -70 128 6 33 5 35 -8 19 -7 -9 -17 -36 -20
-60 l-7 -42 -25 28 c-13 15 -24 40 -24 54 0 32 35 90 58 97 55 15 86 16 142 1
61 -16 97 -14 86 4 -3 5 -28 14 -56 21 -28 7 -52 15 -54 19 -3 4 1 26 9 48 8
23 24 96 35 164 51 296 99 477 163 610 32 66 32 67 7 49 -34 -25 -74 -68 -100
-110 l-22 -35 6 49 c13 107 126 278 215 327 45 24 120 21 159 -8z m948 -128
c33 -69 65 -198 63 -252 0 -15 -9 8 -19 52 -24 103 -44 164 -87 250 -26 54
-29 64 -12 45 12 -14 37 -56 55 -95z m-1370 -333 c4 -18 0 -50 -8 -75 -8 -23
-36 -106 -62 -183 -26 -78 -53 -150 -61 -160 -10 -15 -30 -20 -90 -24 l-76 -5
7 40 c11 70 71 268 129 426 37 103 54 162 50 179 -3 14 19 -18 50 -70 30 -52
58 -110 61 -128z m891 104 c-9 -7 -62 -27 -116 -45 -147 -46 -250 -123 -304
-226 -9 -16 -16 -25 -17 -19 0 7 19 39 41 73 44 66 137 149 204 181 50 24 140
49 180 49 27 0 28 -1 12 -13z m-1222 -38 c-27 -178 -68 -379 -82 -407 -10 -18
-28 -40 -40 -48 -19 -13 -22 -21 -16 -59 7 -53 -14 -84 -58 -84 -36 0 -53 30
-46 79 6 33 5 35 -8 17 -8 -11 -15 -36 -15 -55 l-1 -36 -24 28 c-27 31 -31 53
-14 90 19 42 51 53 110 38 81 -21 93 -3 134 199 49 239 58 280 62 280 3 0 2
-19 -2 -42z m286 -459 c-16 -79 -34 -155 -39 -169 -12 -32 -40 -56 -73 -64
-22 -5 -28 -2 -34 17 l-8 22 -4 -23 c-6 -32 -37 -46 -58 -25 -12 11 -16 29
-13 60 3 37 1 41 -9 26 -7 -9 -13 -27 -13 -39 0 -34 -19 -39 -30 -8 -13 34 4
90 32 105 13 7 44 9 84 4 63 -7 65 -6 98 27 26 26 40 56 61 126 16 51 30 91
32 89 1 -2 -10 -69 -26 -148z m499 -399 c-8 -5 -26 -9 -40 -9 -23 1 -23 2 5 9
43 11 52 11 35 0z m-188 -140 c14 -10 35 -42 47 -70 l22 -50 142 -1 c153 -1
146 -12 -15 -25 -120 -9 -132 -5 -163 61 -14 30 -40 66 -56 80 -36 29 -14 35
23 5z m391 -117 c-7 -2 -19 -2 -25 0 -7 3 -2 5 12 5 14 0 19 -2 13 -5z"/>
<path d="M2328 3613 c7 -3 16 -2 19 1 4 3 -2 6 -13 5 -11 0 -14 -3 -6 -6z"/>
<path d="M2303 3583 c9 -2 23 -2 30 0 6 3 -1 5 -18 5 -16 0 -22 -2 -12 -5z"/>
<path d="M2308 3553 c6 -2 18 -2 25 0 6 3 1 5 -13 5 -14 0 -19 -2 -12 -5z"/>
<path d="M2034 3478 l-19 -23 23 19 c21 18 27 26 19 26 -2 0 -12 -10 -23 -22z"/>
<path d="M2496 3124 c-146 -59 -229 -116 -257 -178 -34 -74 -18 -215 31 -276
l20 -25 -8 35 c-4 19 -7 64 -6 100 1 117 58 202 205 305 44 31 79 58 79 60 0
3 -1 5 -2 4 -2 0 -30 -12 -62 -25z"/>
<path d="M1936 3077 c-41 -70 -56 -124 -55 -201 1 -67 2 -69 11 -33 l10 38 23
-48 c12 -26 29 -54 38 -61 14 -12 15 -11 7 18 -15 52 -22 212 -12 273 5 31 8
57 6 57 -2 0 -14 -19 -28 -43z"/>
<path d="M2234 3028 c-97 -66 -155 -174 -153 -287 l1 -56 13 66 c20 100 59
170 136 244 37 36 64 65 59 65 -4 0 -30 -15 -56 -32z"/>
<path d="M3147 2672 c35 -71 46 -151 34 -232 -15 -93 -13 -112 5 -70 21 47 51
78 85 85 34 8 49 31 49 75 0 83 -71 159 -171 183 l-26 7 24 -48z"/>
<path d="M3300 1485 c-16 -19 -2 -73 23 -89 40 -26 72 34 43 80 -19 27 -47 31
-66 9z"/>
<path d="M2512 1824 c-6 -23 -35 -85 -62 -139 -28 -54 -50 -104 -50 -113 0
-24 109 147 121 190 5 22 9 54 7 71 l-3 32 -13 -41z"/>
<path d="M1182 4483 c-11 -27 -32 -97 -48 -158 -15 -60 -36 -117 -46 -127 -31
-31 -22 -40 35 -34 73 8 77 8 77 17 0 4 -7 12 -15 17 -9 4 -13 15 -10 23 7 19
95 13 95 -7 0 -8 -6 -14 -14 -14 -8 0 -16 -7 -20 -15 -4 -12 5 -15 54 -15 57
0 78 11 45 23 -8 4 -24 39 -35 79 -43 145 -82 258 -90 258 -4 0 -17 -21 -28
-47z m53 -116 c6 -23 4 -26 -26 -29 -32 -3 -34 -6 -50 -68 -9 -36 -18 -56 -18
-45 -1 11 13 67 31 124 32 102 33 104 45 74 6 -17 15 -42 18 -56z m24 -84 c1
-8 -12 -13 -33 -13 -29 0 -33 3 -29 19 3 11 11 17 18 15 7 -3 16 3 20 13 7 17
8 17 15 -2 5 -11 9 -26 9 -32z"/>
<path d="M4159 4334 l-34 -35 -5 -1238 c-4 -1038 -7 -1241 -19 -1255 -8 -9
-12 -19 -9 -22 3 -2 25 26 49 63 l44 67 5 476 c5 463 6 476 27 515 50 94 54
132 51 442 l-3 288 -27 55 -26 55 -2 -390 c-1 -214 -6 -401 -10 -415 -5 -14
-7 302 -7 703 1 400 2 727 1 727 0 0 -16 -16 -35 -36z"/>
<path d="M1280 4092 c0 -7 -29 -44 -65 -82 -68 -72 -80 -104 -49 -134 21 -22
56 -20 88 5 14 11 26 17 26 12 -1 -13 -33 -49 -55 -61 -11 -6 -14 -12 -7 -12
7 0 25 -20 41 -44 l28 -45 22 39 c12 22 30 44 39 49 10 6 12 11 5 11 -16 0
-53 36 -53 51 0 5 10 3 22 -5 29 -21 51 -20 78 2 39 32 30 70 -30 124 -29 26
-62 60 -72 75 -10 16 -18 22 -18 15z"/>
<path d="M3681 3008 c-84 -41 -128 -149 -118 -289 6 -92 27 -142 127 -309 77
-128 111 -209 134 -323 18 -87 21 -286 6 -367 -15 -78 -5 -73 22 11 19 60 23
95 22 189 -1 138 -21 222 -95 402 -79 191 -99 253 -106 326 l-7 67 -12 -45
-12 -45 -1 43 c-1 51 24 111 48 113 50 4 65 -9 51 -45 -13 -34 3 -41 59 -26
154 41 171 236 27 301 -54 24 -91 24 -145 -3z m158 -102 c35 -36 37 -103 3
-139 -28 -29 -79 -53 -90 -42 -4 4 -2 10 5 12 29 10 63 46 63 66 -1 59 -91 98
-151 66 -20 -10 -20 -10 -3 16 39 60 123 70 173 21z"/>
<path d="M927 2093 c-4 -3 -7 -41 -7 -84 0 -72 3 -82 33 -125 l32 -46 3 108
c2 99 1 109 -19 130 -24 25 -31 28 -42 17z"/>
<path d="M920 1549 l0 -325 -30 -34 c-27 -33 -29 -41 -30 -119 0 -79 2 -85 30
-118 29 -33 30 -36 30 -137 0 -57 5 -118 12 -137 15 -46 64 -114 94 -129 36
-20 29 -30 -21 -30 -25 0 -45 -3 -45 -7 0 -5 17 -19 37 -33 l37 -25 314 -3
314 -4 -44 40 c-76 69 -86 72 -280 72 -95 0 -191 5 -213 11 -54 15 -109 74
-124 132 -7 32 -11 209 -11 570 l0 524 -35 39 -35 38 0 -325z"/>
<path d="M4200 1458 l0 -183 35 -28 35 -28 0 169 0 169 -30 41 c-17 23 -32 42
-35 42 -3 0 -5 -82 -5 -182z"/>
<path d="M1436 1400 c-124 -114 -129 -275 -13 -394 65 -66 149 -107 234 -114
79 -6 82 9 6 32 -217 67 -318 210 -253 356 11 25 36 59 55 75 30 26 34 34 27
59 l-8 30 -48 -44z"/>
<path d="M1296 1377 c-122 -160 -62 -445 114 -541 84 -46 233 -45 375 1 43 14
47 17 27 24 -12 5 -74 3 -137 -3 -147 -14 -186 -4 -261 65 -64 58 -99 114
-125 198 -28 90 -25 162 10 232 16 31 28 57 26 57 -2 0 -15 -15 -29 -33z"/>
<path d="M1486 1309 c-66 -79 6 -214 155 -290 35 -18 127 -56 204 -85 137 -51
139 -52 102 -59 -21 -4 -35 -11 -30 -15 12 -11 354 -119 414 -130 96 -18 111
-12 43 19 -33 16 -85 51 -115 78 -39 35 -80 59 -139 83 -47 18 -110 46 -140
61 -30 16 -85 40 -123 54 -216 80 -325 173 -330 281 -1 19 -5 34 -9 34 -3 0
-18 -14 -32 -31z"/>
<path d="M3898 1302 c-44 -66 -64 -114 -108 -252 -23 -74 -58 -164 -78 -200
-43 -79 -141 -178 -208 -211 l-49 -24 -820 -3 c-941 -3 -855 -11 -1040 98 -57
33 -107 60 -111 60 -4 0 3 -12 17 -26 37 -40 191 -139 256 -165 l58 -24 688
-3 c378 -2 742 1 808 7 109 8 128 13 196 46 98 48 204 153 256 251 21 40 52
128 72 203 19 72 48 165 64 206 16 41 28 75 26 75 -1 0 -14 -17 -27 -38z"/>
<path d="M4000 1245 c0 -8 -9 -15 -20 -15 -29 0 -53 -43 -45 -80 6 -27 66
-111 84 -118 4 -1 22 18 40 44 55 76 43 161 -21 152 -24 -4 -27 -2 -22 14 3
10 1 18 -5 18 -6 0 -11 -7 -11 -15z"/>
<path d="M4218 1053 l-48 -49 0 -149 c0 -165 -8 -209 -47 -255 -52 -63 -61
-64 -373 -73 -157 -4 -348 -11 -425 -15 l-140 -8 100 -4 c55 -2 114 -4 131 -4
l31 1 -31 -29 c-17 -16 -24 -26 -16 -21 8 4 168 10 355 13 l340 5 48 28 c60
36 103 94 117 160 7 32 10 129 8 250 l-3 198 -47 -48z"/>
<path d="M3930 1003 c0 -6 5 -15 10 -18 10 -6 70 -118 70 -130 0 -3 -18 -5
-40 -5 -22 0 -40 -2 -40 -4 0 -1 24 -54 53 -115 61 -130 59 -131 113 5 19 49
38 95 41 102 4 8 -7 12 -36 12 -23 0 -41 2 -41 5 0 13 36 93 52 117 10 14 18
28 18 31 0 3 -45 7 -100 9 -73 2 -100 0 -100 -9z m140 -39 c0 -23 -2 -25 -16
-13 -13 10 -17 10 -25 -2 -5 -8 -9 -18 -9 -23 0 -17 -10 1 -20 33 -9 31 -9 31
31 31 35 0 39 -2 39 -26z m0 -144 c13 -8 12 -16 -5 -66 l-19 -57 -27 59 c-15
32 -28 62 -28 67 -1 10 61 9 79 -3z"/>
<path d="M2615 500 c-46 -5 -30 -7 70 -8 80 0 122 3 110 8 -23 10 -92 10 -180
0z"/>
<path d="M1863 483 c37 -2 96 -2 130 0 34 2 4 3 -68 3 -71 0 -99 -1 -62 -3z"/>
</g>
</svg>